<svg width="16" height="12" viewBox="0 0 16 12" fill="none" xmlns="http://www.w3.org/2000/svg">
<path d="M15.4191 6.46253L10.4635 11.469C10.3043 11.6292 10.1052 11.7093 9.90621 11.7093C9.70718 11.7093 9.50816 11.6292 9.34894 11.469C9.03051 11.1486 9.03051 10.6479 9.34894 10.3275L12.9513 6.68281H1.32832C0.890468 6.68281 0.532227 6.32235 0.532227 5.88178C0.532227 5.44121 0.890468 5.08074 1.32832 5.08074H12.9513L9.34894 1.43605C9.03051 1.11563 9.03051 0.614984 9.34894 0.29457C9.66738 -0.0258431 10.1649 -0.0258431 10.4834 0.29457L15.4391 5.30103C15.7376 5.64147 15.7376 6.16214 15.4191 6.46253Z" fill="black"/>
</svg>
