<svg width="25" height="25" viewBox="0 0 25 25" fill="none" xmlns="http://www.w3.org/2000/svg">
<path d="M1.4613 2.55554H3.11555C3.59394 2.55554 3.83313 2.55554 4.02758 2.64228C4.19901 2.71875 4.34545 2.84192 4.45016 2.99771C4.56894 3.17443 4.60992 3.41008 4.69189 3.8814L5.07 6.05554M5.07 6.05554L5.95303 11.133C6.13221 12.1633 6.2218 12.6784 6.48713 13.0495C6.72076 13.3762 7.04736 13.6251 7.42441 13.7636C7.85263 13.9209 8.37307 13.8705 9.41395 13.7698L19.0753 12.8348C20.0911 12.7365 20.5991 12.6874 20.9834 12.4588C21.3266 12.2548 21.6008 11.9527 21.7708 11.5915C21.9613 11.1869 21.9613 10.6766 21.9613 9.65604V9.65604C21.9613 8.57136 21.9613 8.02902 21.7535 7.60948C21.5681 7.23525 21.2703 6.92844 20.9017 6.73208C20.4885 6.51194 19.9464 6.4959 18.8622 6.4638L5.07 6.05554Z" stroke="#262F56" stroke-width="1.8" stroke-linecap="round" stroke-linejoin="round"/>
<circle cx="8.9613" cy="19.0555" r="2" stroke="#262F56" stroke-width="1.8"/>
<circle cx="18.4613" cy="19.0555" r="2" stroke="#262F56" stroke-width="1.8"/>
</svg>
